<!DOCTYPE svg PUBLIC "-//W3C//DTD SVG 1.1//EN" "http://www.w3.org/Graphics/SVG/1.1/DTD/svg11.dtd">
<!-- Uploaded to: SVG Repo, www.svgrepo.com, Transformed by: SVG Repo Mixer Tools -->
<svg fill="#ffffff" width="193px" height="193px" viewBox="0 0 24 24" id="cart-close" data-name="Flat Color" xmlns="http://www.w3.org/2000/svg" class="icon flat-color">
<g id="SVGRepo_bgCarrier" stroke-width="0"/>
<g id="SVGRepo_tracerCarrier" stroke-linecap="round" stroke-linejoin="round"/>
<g id="SVGRepo_iconCarrier">
<path id="secondary" d="M18.5,20.5A1.5,1.5,0,1,1,17,19,1.5,1.5,0,0,1,18.5,20.5ZM11,19a1.5,1.5,0,1,0,1.5,1.5A1.5,1.5,0,0,0,11,19ZM15.41,7l1.3-1.29a1,1,0,1,0-1.42-1.42L14,5.59l-1.29-1.3a1,1,0,0,0-1.42,1.42L12.59,7l-1.3,1.29a1,1,0,0,0,0,1.42,1,1,0,0,0,1.42,0L14,8.41l1.29,1.3a1,1,0,0,0,1.42,0,1,1,0,0,0,0-1.42Z" style="fill: #2ca9bc;"/>
<path id="primary" d="M18.22,17H9.8a2,2,0,0,1-2-1.55L5.2,4H3A1,1,0,0,1,3,2H5.2a2,2,0,0,1,2,1.55L9.8,15h8.42L20,7.76A1,1,0,0,1,22,8.24l-1.81,7.25A2,2,0,0,1,18.22,17Z" style="fill: #fcfcfc;"/>
</g>
</svg>